<?xml version="1.0" encoding="utf-8"?>
<!-- Generator: Adobe Illustrator 18.1.1, SVG Export Plug-In . SVG Version: 6.00 Build 0)  -->
<svg version="1.1" id="Capa_1" xmlns="http://www.w3.org/2000/svg" xmlns:xlink="http://www.w3.org/1999/xlink" x="0px" y="0px"
	 viewBox="40 435.6 612.1 362.7" enable-background="new 40 435.6 612.1 362.7" xml:space="preserve">
<g>
	<path fill="#332702" d="M649.1,496.6H43c-1.7,0-3-1.8-3-3.8v-53.3c0-2.2,1.3-3.8,3-3.8h606.1c1.7,0,3,1.8,3,3.8v53.3
		C652,494.9,650.7,496.6,649.1,496.6z"/>
</g>
<g>
	<path fill="#332702" d="M649.1,647.5H43c-1.7,0-3-1.8-3-3.8v-53.3c0-2.2,1.3-3.8,3-3.8h606.1c1.7,0,3,1.8,3,3.8v53.3
		C652,645.7,650.7,647.5,649.1,647.5z"/>
</g>
<g>
	<path fill="#332702" d="M649.1,798.4H43c-1.7,0-3-1.8-3-3.8v-53.3c0-2.2,1.3-3.8,3-3.8h606.1c1.7,0,3,1.8,3,3.8v53.3
		C652,796.6,650.7,798.4,649.1,798.4z"/>
</g>
</svg>
