<?xml version="1.0" encoding="utf-8"?>
<!-- Generator: Adobe Illustrator 18.1.1, SVG Export Plug-In . SVG Version: 6.00 Build 0)  -->
<svg version="1.1" id="Capa_1" xmlns="http://www.w3.org/2000/svg" xmlns:xlink="http://www.w3.org/1999/xlink" x="0px" y="0px"
	 viewBox="0 91 612 612" enable-background="new 0 91 612 612" xml:space="preserve">
<g>
	<path d="M612,433.9l-72.2,150.6c-9,17.5-27.1,28.5-46.8,28.5H67c-7.8,0-12.9-8.3-9.4-15.3l0.2-0.4c5.8-11.4,2.3-25.4-8.1-32.8
		l-0.6-0.4c-24.2-17.3-38.6-45.2-38.6-75v-34.1h379.2v-0.2c0-11.5,9.3-20.9,20.9-20.9H612L612,433.9z M368.7,307.5H295
		c-5.8,0-10.5,4.7-10.5,10.5v115.9c0,5.8,4.7,10.5,10.5,10.5h73.7c5.8,0,10.5-4.7,10.5-10.5V318
		C379.2,312.2,374.5,307.5,368.7,307.5z M495.1,349.6h-84.3c-5.8,0-10.5,4.7-10.5,10.5v42.1c0,5.8,4.7,10.5,10.5,10.5h84.3
		c5.8,0,10.5-4.7,10.5-10.5v-42.1C505.6,354.3,500.9,349.6,495.1,349.6z M168.5,444.4h84.3c5.8,0,10.5-4.7,10.5-10.5v-84.3
		c0-5.8-4.7-10.5-10.5-10.5h-84.3c-5.8,0-10.5,4.7-10.5,10.5v84.3C158,439.7,162.7,444.4,168.5,444.4z M163.2,286.4l-26.2,21.1
		v136.9H31.6V307.5H0v-21.1h73.7v-30.5H46.5v-12.3h27.2v-62.5h10.5v62.5h27.2v12.3H84.3v30.5L163.2,286.4L163.2,286.4z M117.9,373.1
		H83.6v31.5h34.3V373.1z M117.9,322.7H83.6v31.5h34.3V322.7z"/>
</g>
</svg>
